<svg xmlns="http://www.w3.org/2000/svg" width="25.595" height="32.272" viewBox="0 0 25.595 32.272">
  <path id="_005-warranty" data-name="005-warranty" d="M33.482,6.564c-4.432,0-8.85-2.076-10.746-5.049a1.113,1.113,0,0,0-1.877,0c-1.9,2.973-6.315,5.049-10.746,5.049A1.113,1.113,0,0,0,9,7.677V18.8c0,7.71,7.475,13.17,12.527,14.433a1.107,1.107,0,0,0,.54,0c5.052-1.263,12.527-6.724,12.527-14.433V7.677A1.113,1.113,0,0,0,33.482,6.564ZM21.8,24.925a7.79,7.79,0,1,1,7.79-7.79A7.79,7.79,0,0,1,21.8,24.925ZM25.922,13.01a1.113,1.113,0,0,1,0,1.574l-6.677,6.677a1.113,1.113,0,0,1-.787.326,1.206,1.206,0,0,1-.178-.014,1.113,1.113,0,0,1-.817-.6l-1.113-2.226a1.113,1.113,0,0,1,1.991-1l.422.845,5.585-5.585A1.113,1.113,0,0,1,25.922,13.01Z" transform="translate(-9 -0.999)" fill="#292d32"/>
</svg>
