<svg xmlns="http://www.w3.org/2000/svg" width="54" height="52" viewBox="0 0 54 52">
  <path id="Polygon_2" data-name="Polygon 2" d="M25,1.784a3,3,0,0,1,4,0l4.585,4.094a3,3,0,0,0,2.121.76L41.9,6.384a3,3,0,0,1,3.1,2.592l.8,5.888a3,3,0,0,0,1.168,1.991l4.8,3.616a3,3,0,0,1,.712,4.03l-3.224,4.968a3,3,0,0,0-.41,2.291l1.293,5.751A3,3,0,0,1,48.1,41.033l-5.846,1.813A3,3,0,0,0,40.5,44.3l-2.849,5.328a3,3,0,0,1-3.767,1.368l-5.758-2.321a3,3,0,0,0-2.243,0L20.12,50.994a3,3,0,0,1-3.767-1.368L13.5,44.3a3,3,0,0,0-1.757-1.451L5.9,41.033A3,3,0,0,1,3.864,37.51l1.293-5.751a3,3,0,0,0-.41-2.291L1.523,24.5a3,3,0,0,1,.712-4.03l4.8-3.616A3,3,0,0,0,8.2,14.863l.8-5.888a3,3,0,0,1,3.1-2.592l6.193.254a3,3,0,0,0,2.121-.76Z" fill="#2569f3"/>
</svg>
