<svg width="500" height="128" viewBox="0 0 500 128" fill="none" xmlns="http://www.w3.org/2000/svg">
<path d="M199.258 107.559C193.409 107.559 188.281 106.357 183.875 103.953C179.468 101.47 176.023 97.8241 173.539 93.0168C171.135 88.1294 169.934 82.2004 169.934 75.2299C169.934 68.019 171.216 61.8496 173.779 56.7219C176.423 51.514 180.109 47.5079 184.836 44.7037C189.563 41.8994 195.132 40.4973 201.541 40.4973C207.791 40.4973 212.879 41.7392 216.805 44.223C220.73 46.7067 223.615 50.1119 225.458 54.4384C227.3 58.6848 228.222 63.4921 228.222 68.8602C228.222 70.2223 228.142 71.5844 227.981 72.9464C227.901 74.3085 227.741 75.7507 227.501 77.273H183.514V67.2979H213.079L210.916 68.8602C210.996 65.6554 210.675 62.8511 209.954 60.4475C209.313 57.9638 208.191 56.0408 206.589 54.6788C205.067 53.3167 202.944 52.6357 200.219 52.6357C197.095 52.6357 194.571 53.5571 192.648 55.3999C190.725 57.1625 189.323 59.5662 188.442 62.6108C187.64 65.6554 187.24 69.0606 187.24 72.8262C187.24 77.0727 187.761 80.8784 188.802 84.2435C189.844 87.6086 191.526 90.2526 193.85 92.1755C196.253 94.0984 199.378 95.0599 203.224 95.0599C205.948 95.0599 208.873 94.5792 211.997 93.6177C215.202 92.5761 218.527 91.0538 221.972 89.0508L227.621 98.0644C222.974 101.269 218.207 103.673 213.319 105.275C208.512 106.798 203.825 107.559 199.258 107.559Z" fill="black"/>
<path d="M279.158 107.559C272.588 107.559 266.579 105.956 261.131 102.752C255.683 99.4666 251.316 94.6192 248.031 88.2095C244.746 81.7197 243.104 73.7476 243.104 64.2933C243.104 54.9993 244.706 47.0673 247.911 40.4973C251.116 33.9274 255.643 28.8797 261.492 25.3544C267.34 21.8291 274.191 20.0664 282.043 20.0664C286.209 20.0664 290.495 20.5872 294.902 21.6288C299.309 22.6703 304.036 24.2327 309.084 26.3159L308.002 47.9486H297.786L294.902 33.8873L297.786 36.6515C294.982 35.5298 292.298 34.6885 289.734 34.1277C287.17 33.5668 284.807 33.2864 282.644 33.2864C278.077 33.2864 274.231 34.4482 271.106 36.7717C267.981 39.0151 265.618 42.3 264.015 46.6266C262.413 50.9531 261.612 56.121 261.612 62.1301C261.612 69.1807 262.533 75.0696 264.376 79.7968C266.299 84.4438 268.903 87.9291 272.188 90.2526C275.553 92.496 279.318 93.6177 283.485 93.6177C286.61 93.6177 289.894 92.9767 293.34 91.6948C296.865 90.3327 300.39 88.2896 303.916 85.5655L310.285 95.5406C305.318 99.5467 300.15 102.551 294.782 104.554C289.494 106.557 284.286 107.559 279.158 107.559Z" fill="black"/>
<path d="M375.818 97.5837L373.535 94.2186L383.87 97.4635V105.996L362.839 107.078L360.555 95.5406L361.757 95.9012C358.552 99.8271 355.067 102.752 351.301 104.674C347.535 106.597 343.65 107.559 339.644 107.559C334.516 107.559 330.269 105.916 326.904 102.631C323.539 99.3464 321.857 94.6192 321.857 88.4499C321.857 83.883 322.818 80.2775 324.741 77.6335C326.744 74.9094 329.628 72.9464 333.394 71.7446C337.16 70.5428 341.727 69.9419 347.095 69.9419H360.195L358.993 71.2639V63.3319C358.993 59.5662 358.071 56.8821 356.229 55.2797C354.466 53.6773 351.862 52.8761 348.417 52.8761C346.734 52.8761 344.932 53.0363 343.009 53.3568C341.086 53.6773 339.003 54.158 336.759 54.799L338.442 52.9962L336.879 62.731H326.424L325.462 45.1844C330.91 43.582 335.878 42.4202 340.365 41.6991C344.932 40.8979 349.098 40.4973 352.864 40.4973C360.315 40.4973 366.003 42.0997 369.929 45.3046C373.855 48.5094 375.818 53.477 375.818 60.2071V97.5837ZM338.802 86.7673C338.802 89.7318 339.483 91.9352 340.845 93.3773C342.288 94.7394 344.09 95.4204 346.254 95.4204C348.257 95.4204 350.46 94.8195 352.864 93.6177C355.267 92.3358 357.551 90.6132 359.714 88.4499L358.993 91.3343V77.6335L360.195 78.8353H349.859C345.693 78.8353 342.808 79.4763 341.206 80.7582C339.603 82.0402 338.802 84.0432 338.802 86.7673Z" fill="black"/>
<path d="M394.753 106.117V97.4635L404.487 94.6993L402.805 97.2232V51.0733L404.728 53.9577L394.753 50.9531V42.3001L415.905 41.3386L418.068 52.7559L415.905 52.2751C419.51 48.5094 423.075 45.6251 426.601 43.622C430.126 41.5389 433.892 40.4973 437.898 40.4973C440.462 40.4973 443.186 40.8979 446.07 41.6991L444.989 63.9328H435.254L433.451 50.9531L435.013 54.1981C434.533 54.0378 434.012 53.9176 433.451 53.8375C432.97 53.7574 432.49 53.7173 432.009 53.7173C429.525 53.7173 427.041 54.4785 424.558 56.0008C422.154 57.5231 420.071 59.4861 418.308 61.8897L419.63 57.3228V97.2232L417.707 94.6993L429.605 97.4635V106.117H394.753Z" fill="black"/>
<path d="M480.65 107.559C475.121 107.559 470.915 105.916 468.031 102.631C465.226 99.2663 463.824 94.2987 463.824 87.7288V50.9531L465.988 53.1164H454.45V44.1028L466.228 41.3386L463.824 44.223V27.8782L480.77 24.8737V44.223L478.967 41.9395H497.235L496.994 53.1164H478.967L480.77 50.9531V85.4453C480.77 88.8906 481.331 91.3743 482.452 92.8966C483.574 94.4189 485.257 95.1801 487.5 95.1801C488.782 95.1801 490.184 94.9798 491.706 94.5792C493.309 94.0984 495.031 93.4975 496.874 92.7764L499.999 102.03C493.269 105.716 486.819 107.559 480.65 107.559Z" fill="black"/>
<path d="M112.937 14.9162C103.881 5.32721 87.899 0.532721 63.9265 0C39.9541 0.532721 23.9724 5.32721 14.9162 14.9162C5.32721 23.9724 0.532721 39.9541 0 63.9265C0.532721 87.899 5.32721 103.881 14.9162 112.937C23.9724 122.526 39.9541 127.32 63.9265 127.853C87.899 127.32 103.881 122.526 112.937 112.937C122.526 103.348 127.32 87.899 127.853 63.9265C127.32 39.9541 122.526 23.9724 112.937 14.9162Z" fill="#0063FF"/>
<path d="M60.6012 98.5534C63.1756 98.5534 65.2625 96.4664 65.2625 93.8921C65.2625 91.3177 63.1756 89.2308 60.6012 89.2308C58.0268 89.2308 55.9399 91.3177 55.9399 93.8921C55.9399 96.4664 58.0268 98.5534 60.6012 98.5534Z" fill="white"/>
<path d="M76.5828 98.5534C79.1572 98.5534 81.2441 96.4664 81.2441 93.8921C81.2441 91.3177 79.1572 89.2308 76.5828 89.2308C74.0084 89.2308 71.9215 91.3177 71.9215 93.8921C71.9215 96.4664 74.0084 98.5534 76.5828 98.5534Z" fill="white"/>
<path d="M25.3167 26.6361H26.9149C31.1767 26.6361 35.1721 27.9679 38.9011 30.0987C43.6956 33.2951 48.2237 38.6223 49.0228 44.2158L51.9528 63.1274H97.7668C99.6313 63.1274 101.496 64.7256 101.496 66.8565C101.496 68.721 99.8977 70.5855 97.7668 70.5855H49.0228C47.4247 70.5855 45.8265 69.7865 45.5601 68.1883L42.0975 46.6131C41.5647 42.6177 38.3684 38.6223 35.1721 36.7578C32.7748 35.4259 29.8449 34.3605 26.9149 34.3605H25.0504C23.1859 34.3605 21.3213 32.7623 21.3213 30.6315C21.5877 28.2342 23.1859 26.6361 25.3167 26.6361Z" fill="white"/>
<path d="M45.5643 80.4388C45.5643 78.2322 47.3531 76.4434 49.5597 76.4434H89.5138C91.7204 76.4434 93.5092 78.2322 93.5092 80.4388C93.5092 82.6454 91.7204 84.4342 89.5138 84.4342H49.5597C47.3531 84.4342 45.5643 82.6454 45.5643 80.4388Z" fill="white"/>
<path d="M64.2012 53.2721C64.2012 51.0655 65.99 49.2767 68.1966 49.2767H102.823C105.03 49.2767 106.819 51.0655 106.819 53.2721C106.819 55.4787 105.03 57.2675 102.823 57.2675H68.1966C65.99 57.2675 64.2012 55.4787 64.2012 53.2721Z" fill="white"/>
</svg>
