<svg xmlns="http://www.w3.org/2000/svg" width="16.827" height="13.703" viewBox="0 0 16.827 13.703">
  <g id="group_4_" data-name="group (4)" transform="translate(-1 -4.57)">
    <path id="Path_32922" data-name="Path 32922" d="M8.92,10.981A3.206,3.206,0,1,0,5.714,7.776,3.206,3.206,0,0,0,8.92,10.981Z" transform="translate(-2.07 0)" fill="#ff7900"/>
    <path id="Path_32923" data-name="Path 32923" d="M11.043,19.338A5.852,5.852,0,0,0,1,23.42a.561.561,0,0,0,.561.561H12.14a.561.561,0,0,0,.561-.561,5.647,5.647,0,0,0-.272-1.752A5.811,5.811,0,0,0,11.043,19.338Z" transform="translate(0 -5.708)" fill="#ff7900"/>
    <circle id="Ellipse_1112" data-name="Ellipse 1112" cx="2.384" cy="2.384" r="2.384" transform="translate(11.237 6.494)" fill="#ff7900"/>
    <path id="Path_32924" data-name="Path 32924" d="M21.829,17.67a4.2,4.2,0,0,0-2.135.593c.122.109.245.216.36.334a6.948,6.948,0,0,1,1.656,2.785,6.444,6.444,0,0,1,.245,1.056h3.52a.561.561,0,0,0,.561-.561,4.211,4.211,0,0,0-4.207-4.207Z" transform="translate(-8.208 -5.752)" fill="#ff7900"/>
  </g>
</svg>
