<svg xmlns="http://www.w3.org/2000/svg" xmlns:xlink="http://www.w3.org/1999/xlink" width="116.426" height="109.321" viewBox="0 0 116.426 109.321">
  <defs>
    <clipPath id="clip-path">
      <rect id="Rectangle_17935" data-name="Rectangle 17935" width="71.872" height="92.641" fill="#fff"/>
    </clipPath>
  </defs>
  <g id="Group_905271" data-name="Group 905271" transform="translate(79.409) rotate(59)">
    <g id="Group_905270" data-name="Group 905270" clip-path="url(#clip-path)">
      <path id="Path_31181" data-name="Path 31181" d="M1.834,92.642a1.806,1.806,0,0,1-.733-.134.639.639,0,0,1-.092-.056,3.12,3.12,0,0,1-.343-.339.612.612,0,0,1-.06-.084c-.041-.07-.083-.159-.125-.248a1,1,0,0,1-.062-.148s-.1-.291-.126-.38a2.235,2.235,0,0,0-.223-1.5l-.012-.027,0-.014a1.9,1.9,0,0,0,.071-.456c-.012-.5-.005-.989,0-1.46a23.321,23.321,0,0,0-.06-2.549l-.01-.106-.036-.1c-.038-.1-.025-.127-.017-.14a3.315,3.315,0,0,0,.308-2.078c-.015-.165-.03-.33-.033-.494l0-.132-.042-.124a.121.121,0,0,1,0-.033c.02-.057.043-.113.065-.171A2.241,2.241,0,0,0,.46,80.3a2.067,2.067,0,0,0,.218-1.544c.017-.046.037-.091.056-.138a1.849,1.849,0,0,0,.148-1.25,6.222,6.222,0,0,0,.141-.806c0-.01.009-.036.018-.067a3.5,3.5,0,0,0,.179-.812c.008-.063.017-.127.027-.191,0-.022.019-.068.034-.113a3.147,3.147,0,0,0,.136-.667c.008-.065.016-.13.027-.2a.785.785,0,0,1,.032-.106,4.261,4.261,0,0,0,.161-.644l.011-.056a1.006,1.006,0,0,1,.034-.108,3.542,3.542,0,0,0,.146-.581l.02-.106a.828.828,0,0,1,.033-.1,3.434,3.434,0,0,0,.15-.591l.018-.091a.732.732,0,0,1,.027-.081,3.018,3.018,0,0,0,.173-.73.591.591,0,0,1,.023-.081l.019-.055c.044-.125.088-.251.128-.377a.986.986,0,0,1,.048-.126,4.376,4.376,0,0,0,.179-.527.778.778,0,0,1,.038-.1,4.476,4.476,0,0,0,.171-.533,1.428,1.428,0,0,1,.048-.143,3.563,3.563,0,0,0,.138-.61.478.478,0,0,1,.023-.084,2.344,2.344,0,0,1,.1-.217l.02-.042c.019-.044.04-.087.061-.129L3.29,68.2l.013-.035q.072-.192.131-.388a1.119,1.119,0,0,1,.052-.146c.056-.157.1-.276.135-.4a.554.554,0,0,1,.036-.1l.137-.273a1.154,1.154,0,0,1,.067-.13l.023-.043c.054-.107.105-.215.153-.325.03-.08.049-.12.067-.162l.032-.08c.039-.112.074-.224.106-.338a.333.333,0,0,1,.025-.062l.143-.293a1.715,1.715,0,0,1,.076-.155l.029-.058c.021-.048.045-.1.069-.142l.026-.055c.02-.045.044-.088.067-.131l.018-.032.015-.033c.02-.043.042-.086.063-.128l.035-.071c.02-.046.045-.09.069-.135l.018-.031.014-.033c.019-.043.04-.084.061-.125l.021-.04c.038-.083.062-.127.086-.171l.017-.03.014-.032c.02-.045.043-.09.066-.135l.035-.073c.02-.045.045-.089.068-.132l.017-.03.014-.032c.02-.045.043-.09.066-.135l.033-.068c.02-.046.045-.09.069-.134l.017-.03.014-.032c.021-.048.045-.094.069-.141l.033-.068c.019-.045.043-.087.067-.13l.018-.032.015-.033c.019-.044.041-.086.063-.128l.036-.075c.02-.044.043-.086.066-.128l.03-.06c.022-.049.048-.1.074-.145a.483.483,0,0,1,.049-.082c.035-.048.066-.086.1-.124l.028-.035.1-.152.124-.218.015-.034a.541.541,0,0,1,.037-.063l.028-.046c.057-.1.11-.206.16-.312l0-.009.027-.037c.025-.034.052-.065.079-.1l.544-.653-.068-.055.056-.083.11-.2a.433.433,0,0,1,.048-.078,1.094,1.094,0,0,1,.075-.09l.285-.314-.018-.088.063-.122.034-.045c.029-.038.06-.074.092-.11,0,0,.082-.1.1-.123a3.626,3.626,0,0,0,.293-.428.742.742,0,0,1,.065-.1c.039-.051.07-.086.1-.121l.1-.112a3.452,3.452,0,0,0,.321-.448A.909.909,0,0,1,9,57.816a1.427,1.427,0,0,1,.1-.113l.093-.1c.034-.039.064-.069.094-.1a1.523,1.523,0,0,0,.417-.376l.028-.033.19-.135.028-.084.086-.048.084-.159.093-.066.088-.129.082-.077L9.189,55.233l1.219,1.138.041-.043a2.281,2.281,0,0,0,.187-.21c.086-.1.163-.2.241-.305a2.113,2.113,0,0,1,.281-.329l.183-.152.146-.051.057-.168.123-.05.062-.154.128-.057.062-.141.133-.062.065-.143.13-.063.063-.133.135-.064.065-.137.135-.065.062-.129.143-.065.059-.129.149-.063.056-.131.153-.06.082-.206.013.014c.159-.135.308-.281.457-.427a3.9,3.9,0,0,1,.623-.537l.113-.07.085-.1a.482.482,0,0,1,.038-.043l.156-.1.045-.083.155-.077.046-.089.1-.031.123-.194a1.384,1.384,0,0,0,.369-.391l.038-.045c.037-.039.076-.075.116-.111l.108-.1a1.1,1.1,0,0,1,.1-.089.981.981,0,0,1,.1-.068l.046-.03c.1-.068.205-.137.3-.213l.027-.021.025-.023c.037-.034.076-.065.114-.1l.06-.052a1.2,1.2,0,0,1,.1-.085,1.117,1.117,0,0,1,.113-.077l.045-.029c.1-.068.2-.136.3-.211l.028-.022.026-.024c.035-.032.072-.061.108-.091l.063-.054a1.362,1.362,0,0,1,.108-.088.983.983,0,0,1,.115-.078,5.082,5.082,0,0,0,.433-.3.81.81,0,0,1,.1-.065c.151-.089.288-.171.416-.264a.753.753,0,0,1,.1-.063l.089-.043c.051-.025.1-.05.151-.076l.041-.022.243-.167.035-.031c.028-.025.058-.046.087-.068l.04-.032.054-.025c.03-.019.063-.035.094-.053l.045-.024.073-.047.2-.138.034-.031a.825.825,0,0,1,.078-.06L20.057,48l.067-.043c.034-.02.069-.037.1-.053l.038-.018.036-.022a.262.262,0,0,1,.041-.019l.043-.018c.128-.059.219-.1.307-.149l.033-.018.031-.021a.416.416,0,0,1,.058-.03l.03-.015.209-.113.249-.172.034-.03a1,1,0,0,1,.085-.066.589.589,0,0,1,.079-.047c.077-.044.121-.067.166-.089l.051-.028c.04-.024.082-.043.124-.063l.048-.025c.042-.023.085-.044.128-.065l.075-.039c.043-.025.088-.045.133-.066l.048-.025c.042-.023.085-.044.128-.065l.077-.039c.044-.025.089-.046.135-.067l.05-.025c.041-.023.084-.043.127-.063l.075-.038c.04-.023.083-.042.126-.062l.047-.023c.045-.024.092-.045.138-.067l.062-.031a1.176,1.176,0,0,1,.109-.05l.043-.019c.1-.045.2-.09.294-.141l.049-.029a.979.979,0,0,1,.1-.049l.291-.144a.442.442,0,0,1,.077-.03l.091-.03c.081-.026.162-.053.242-.083l.033-.012.031-.015c.04-.019.082-.035.124-.052l.116-.051c.084-.038.167-.076.25-.115a.627.627,0,0,1,.1-.041l.115-.038c.07-.023.141-.045.211-.071l.034-.012.033-.015c.041-.019.083-.035.124-.051l.07-.028c.107-.048.213-.1.32-.147a.755.755,0,0,1,.113-.046l.106-.035c.086-.029.172-.058.258-.089l.05-.02a1.037,1.037,0,0,1,.13-.045l.14-.044c.074-.023.148-.046.222-.071l.053-.02a1.318,1.318,0,0,1,.131-.045,1.737,1.737,0,0,0,.682-.334l.083-.071.062-.09a1.8,1.8,0,0,0,.19-.339l.018-.042.013-.043a2.37,2.37,0,0,0,.082-.609,1.508,1.508,0,0,1,.013-.184.874.874,0,0,1,.025-.121,3.455,3.455,0,0,0,.16-.865c.008-.089.016-.178.029-.267a.916.916,0,0,1,.029-.1l.018-.058a1.012,1.012,0,0,1,.052-.13,1.72,1.72,0,0,0,.174-.924,4.24,4.24,0,0,0,.1-.579c.008-.069.017-.138.028-.207a.819.819,0,0,1,.028-.088,3.909,3.909,0,0,0,.164-.644l.009-.048a.655.655,0,0,1,.029-.086,3.04,3.04,0,0,0,.171-.725l.028-.047a1.762,1.762,0,0,0,.223-.48l.018-.065.007-.067a.282.282,0,0,1,.012-.055l.013-.046c.017-.066.031-.133.046-.2s.028-.133.048-.2a1.141,1.141,0,0,1,.05-.145l.018-.046c.04-.116.079-.233.115-.351a.642.642,0,0,1,.039-.1s.118-.249.151-.322l.018-.045c.016-.043.035-.085.053-.128l.037-.086.01-.032c.039-.118.074-.236.109-.354,0-.013.008-.024.012-.035a1.974,1.974,0,0,0,.136-.248l.185-.128.071-.32a1.465,1.465,0,0,0,.073-.392l.1-.211c.029-.066.05-.106.071-.145l.029-.06c.019-.043.04-.084.061-.126l.033-.068c.02-.045.044-.088.067-.131l.029-.058c.021-.048.045-.093.068-.14l.031-.064c.02-.046.045-.09.069-.134l.016-.029.014-.03c.02-.046.043-.09.066-.135l.035-.071c.021-.046.045-.09.07-.135l.028-.057c.023-.049.047-.1.071-.145l.031-.064c.02-.045.044-.088.068-.131l.017-.03.014-.031c.019-.042.04-.083.06-.123l.039-.08c.019-.044.043-.085.065-.126l.029-.058c.018-.04.039-.08.06-.119l.019-.038a1.5,1.5,0,0,1,.077-.146l.021-.038c.056-.107.108-.216.158-.327,0-.011.01-.02.014-.029L32.663,31l.109-.242a1.593,1.593,0,0,0,.156-.5l.027-.034.1-.152.13-.234.012-.025c.022-.046.047-.089.071-.133l.016-.029.014-.03c.02-.044.043-.087.066-.13l.023-.043a.372.372,0,0,1,.035-.056c.033-.045.067-.085.1-.124l.027-.033.11-.158.112-.2a.513.513,0,0,1,.054-.087c.033-.044.065-.083.1-.121l.029-.035.111-.162.11-.2a.464.464,0,0,1,.046-.076A.938.938,0,0,1,34.3,28.1l.266-.293-.013-.084c.025-.046.048-.092.072-.138a.256.256,0,0,1,.028-.04c.039-.051.071-.088.1-.124l.1-.117a3.742,3.742,0,0,0,.3-.434.759.759,0,0,1,.065-.1c.038-.05.069-.085.1-.119l.093-.107a3.489,3.489,0,0,0,.324-.449.8.8,0,0,1,.07-.1,1.213,1.213,0,0,1,.094-.108l.1-.106c.04-.047.072-.081.1-.115l.054-.058.09-.108c.092-.119.17-.224.241-.334l.027-.043a.967.967,0,0,1,.068-.1,1.051,1.051,0,0,1,.079-.09l.086-.088c.038-.042.077-.078.115-.115l.1-.1c.056-.061.093-.1.131-.134l.111-.115c.048-.054.082-.089.116-.125l.134-.146c.048-.058.085-.1.123-.138l.118-.128.1-.1a5.734,5.734,0,0,0,.628-.725,1.909,1.909,0,0,1,.113-.157,1.172,1.172,0,0,1,.1-.114l.089-.091c.039-.041.081-.08.123-.12l.109-.107c.054-.058.092-.1.131-.133l.115-.114a1.161,1.161,0,0,1,.1-.082c.064-.053.113-.087.164-.122a6.227,6.227,0,0,0,1.051-.956c.017-.018.055-.051.093-.084l.035-.033c.034-.033.071-.064.108-.1l.135-.12c.053-.053.086-.083.119-.113l.141-.135c.054-.057.093-.1.133-.133l.1-.1a.938.938,0,0,1,.082-.07.857.857,0,0,1,.087-.058l.058-.037c.09-.059.181-.118.267-.183l.028-.021.026-.023c.033-.028.066-.055.1-.083l.476-.42v-.019l.156-.144.033-.017.011,0c.036-.022.073-.041.111-.06l.043-.023.245-.166.179-.16.2-.181.053-.027c.03-.019.18-.1.18-.1l.233-.171.03-.028a.9.9,0,0,1,.08-.063,1.012,1.012,0,0,1,.106-.07c.132-.086.233-.153.329-.228l.028-.022.026-.024c.03-.027.062-.053.093-.078l.075-.065a.693.693,0,0,1,.07-.057l.028-.02.025-.022.055-.028c.035-.021.072-.04.108-.058l.04-.021.247-.163.037-.032c.029-.025.061-.048.092-.07l.042-.033.059-.029c.032-.02.065-.037.1-.054l.042-.022.252-.171.035-.03c.027-.024.056-.045.085-.067l.037-.029.055-.026c.034-.02.069-.039.1-.058l.045-.024.114-.077c.038-.026.148-.106.148-.106l.031-.028a.969.969,0,0,1,.077-.061l.038-.018.069-.044a1.181,1.181,0,0,1,.107-.056l.037-.018.035-.022a.651.651,0,0,1,.076-.038l.034-.015.217-.114.253-.17.036-.033c.03-.026.061-.048.093-.071a.493.493,0,0,1,.071-.043c.076-.043.122-.066.168-.09l.043-.023a1.228,1.228,0,0,1,.113-.056c.138-.07.246-.125.351-.187l.046-.029c.038-.026.078-.049.118-.072l.052-.032c.1-.068.2-.128.285-.191A.791.791,0,0,1,48.97,15c.037-.02.087-.043.138-.067l.134-.065.032-.02a.408.408,0,0,1,.057-.026l.089-.04c.085-.038.17-.077.253-.121l.033-.018.031-.02.073-.033c.1-.049.209-.1.31-.156l.051-.031a.464.464,0,0,1,.059-.03l.036-.017.034-.02c.038-.021.077-.04.116-.058l.036-.017.035-.02a.413.413,0,0,1,.062-.028l.039-.017c.108-.05.215-.1.32-.158l.045-.026a1.185,1.185,0,0,1,.109-.058l.323-.176a2.308,2.308,0,0,0,.772-.374c.052-.035.1-.072.158-.1a1.152,1.152,0,0,1,.136-.067l.347-.151.026-.015c.036-.02.073-.035.111-.052l.073-.032c.086-.038.172-.077.256-.12l.036-.019.034-.023a.4.4,0,0,1,.04-.018c.143-.067.25-.119.354-.177a1.524,1.524,0,0,1,.135-.075l.045-.024c.04-.022.08-.042.12-.062l.067-.035c.038-.022.078-.04.118-.058l.042-.021c.043-.023.085-.043.129-.063l.064-.032a1.09,1.09,0,0,1,.105-.049l.043-.02c.1-.045.2-.09.3-.143l.039-.023c.031-.019.064-.034.1-.05l.29-.144a.385.385,0,0,1,.066-.026l.1-.032c.074-.023.147-.047.22-.073l.033-.012.032-.014c.037-.017.076-.031.114-.046l.053-.021c.11-.047.22-.1.327-.15l.049-.028a1.038,1.038,0,0,1,.1-.051l.294-.144a.483.483,0,0,1,.076-.031l.107-.034c.07-.023.14-.045.209-.069l.063-.025c.039-.018.078-.033.118-.048l.053-.021c.111-.048.222-.1.33-.152l.05-.028a1.039,1.039,0,0,1,.1-.051l.3-.148a.558.558,0,0,1,.09-.036l.09-.031c.087-.03.173-.059.259-.093l.034-.013.033-.016c.04-.02.08-.037.122-.055l.039-.017c.119-.057.206-.1.294-.133a.615.615,0,0,1,.083-.027L59.2,10.2c.118-.033.234-.067.349-.111l.037-.014.035-.018c.04-.02.082-.037.123-.054l.35-.165a.564.564,0,0,1,.091-.037l.11-.036c.073-.024.147-.048.219-.075l.033-.012.032-.015c.045-.021.092-.039.138-.057l.053-.022c.127-.058.218-.1.308-.141a.69.69,0,0,1,.1-.043l.111-.036c.072-.023.144-.047.215-.073l.032-.011.031-.015c.044-.02.089-.037.134-.055l.061-.025c.118-.053.216-.1.313-.143a.7.7,0,0,1,.11-.046c.164-.052.335-.111.5-.183a1.22,1.22,0,0,1,.153-.058l.068-.021A.954.954,0,0,0,63.63,8l.206-.954-.975-.054a1.286,1.286,0,0,1-.181-.027.961.961,0,0,1-.147-.038c-.174-.067-.381-.146-.609-.209-.057-.015-.108-.035-.16-.054a3.849,3.849,0,0,0-.619-.143.663.663,0,0,1-.1-.026L60.9,6.446c-.1-.035-.2-.069-.3-.1a1.121,1.121,0,0,1-.132-.05,4.153,4.153,0,0,0-.527-.181.691.691,0,0,1-.095-.035,4.144,4.144,0,0,0-.521-.172.667.667,0,0,1-.09-.034,4.254,4.254,0,0,0-.515-.168.7.7,0,0,1-.09-.034,4.351,4.351,0,0,0-.52-.167.785.785,0,0,1-.105-.037l-.042-.015c-.119-.041-.239-.08-.361-.114a.862.862,0,0,1-.131-.042c-.078-.032-.158-.072-.239-.113l-.263-.124-.034-.012c-.126-.047-.253-.088-.381-.126a1.215,1.215,0,0,1-.148-.052l-.04-.015c-.119-.042-.239-.082-.359-.12a.586.586,0,0,1-.1-.038l-.336-.159-.022-.008c-.045-.018-.088-.037-.131-.057l-.088-.037c-.115-.041-.233-.08-.351-.115a.415.415,0,0,1-.08-.031s-.237-.113-.3-.143l-.039-.017c-.041-.016-.08-.035-.121-.053l-.078-.034a3.654,3.654,0,0,0-.375-.118l-.123-.034a.87.87,0,0,1-.105-.045,5.14,5.14,0,0,0-.676-.266.816.816,0,0,1-.116-.047c-.05-.025-.1-.053-.158-.082L52.7,3.39a1.314,1.314,0,0,1-.136-.073c-.141-.077-.249-.132-.359-.182a1.234,1.234,0,0,1-.131-.065l-.317-.153a.7.7,0,0,1-.078-.049s-.308-.209-.37-.253a1.962,1.962,0,0,0-.108-.168l-.127-.182A.921.921,0,0,1,51,2.146c-.036-.065-.068-.131-.1-.2a5.516,5.516,0,0,0,.035-.785c0-.026,0-.05,0-.073.03-.075.071-.158.114-.246l.073-.151a.576.576,0,0,1,.05-.084.78.78,0,0,1,.065-.075l.086-.088c.017-.017.048-.043.079-.068a.434.434,0,0,1,.07-.043c.1-.054.186-.1.277-.143A.947.947,0,0,1,51.88.139l.1-.03A1.76,1.76,0,0,1,52.421,0a.352.352,0,0,1,.1.02c.138.053.3.114.467.164a.482.482,0,0,1,.083.033L53.4.376l.022.009c.041.016.081.035.121.053l.073.033.033.011c.126.045.253.083.382.115a.928.928,0,0,1,.131.039c.149.055.3.105.453.153a.85.85,0,0,1,.113.043,4.273,4.273,0,0,0,.524.176.684.684,0,0,1,.09.034,4.05,4.05,0,0,0,.518.169.683.683,0,0,1,.086.033,4.328,4.328,0,0,0,.521.169.733.733,0,0,1,.1.038,4.649,4.649,0,0,0,.5.157l.042.011c.055.015.107.033.16.052a4.523,4.523,0,0,0,.488.115l.093.018a.558.558,0,0,1,.09.029c.171.067.348.123.526.173a1.558,1.558,0,0,1,.158.053l.04.013a3.825,3.825,0,0,0,.585.127.7.7,0,0,1,.1.027l.123.043c.106.037.213.074.32.109a1.271,1.271,0,0,1,.144.053,4.838,4.838,0,0,0,.546.178c.066.017.115.035.166.053a4.648,4.648,0,0,0,.539.13.588.588,0,0,1,.11.032,3.379,3.379,0,0,0,.55.178.892.892,0,0,1,.12.037c.161.058.318.108.477.156.073.021.125.04.176.06a3.894,3.894,0,0,0,.618.142.754.754,0,0,1,.115.03l.076.026c.13.045.261.089.392.129A1.743,1.743,0,0,1,64,3.642a3.187,3.187,0,0,0,.585.15l.12.023a.93.93,0,0,1,.111.034,3.645,3.645,0,0,0,.574.142l.111.021a.94.94,0,0,1,.114.035,3.768,3.768,0,0,0,.567.141l.126.025a1.391,1.391,0,0,1,.141.041,3,3,0,0,0,.64.126c.07.008.141.016.21.029a1.008,1.008,0,0,1,.135.038,3.045,3.045,0,0,0,.663.134c.066.008.131.015.2.027a.935.935,0,0,1,.105.032,2.812,2.812,0,0,0,.745.15l.142.015a.816.816,0,0,1,.09.025A4.726,4.726,0,0,0,70.058,5a.755.755,0,0,1,.092.03c.159.06.322.114.484.166l.033.019.105.074c.086.06.173.119.262.175a1.05,1.05,0,0,1,.118.078,1.02,1.02,0,0,1,.1.085l.08.08A.98.98,0,0,1,71.4,5.8a.965.965,0,0,1,.067.1c.082.13.163.246.243.361l.04.058h0s.007.014.017.04c.032.091.067.2.1.314a1.662,1.662,0,0,0-.014.284.918.918,0,0,0-.139.447,1.6,1.6,0,0,0-.048.311,1.105,1.105,0,0,0-.19.477l-.1.26a1.991,1.991,0,0,1-.211.352l-.024.035a1.145,1.145,0,0,0-.212.362l-.115.2a2.9,2.9,0,0,1-.258.4,1.126,1.126,0,0,0-.2.326l-.087.053-.057.178a1.1,1.1,0,0,0-.256.376l-.039.023L69.809,11a1.767,1.767,0,0,1-.257.413,1.059,1.059,0,0,0-.2.339l-.035.022-.1.23a3.3,3.3,0,0,1-.263.435,1.167,1.167,0,0,0-.234.427,1.22,1.22,0,0,0-.192.378l-.006.008a1.238,1.238,0,0,0-.191.379l-.031.044a1.245,1.245,0,0,0-.17.358l-.031.044a1.255,1.255,0,0,0-.172.367l-.014.018a1.252,1.252,0,0,0-.189.392,1.254,1.254,0,0,0-.2.409,1.233,1.233,0,0,0-.2.413,1.146,1.146,0,0,0-.24.607l-.04.075a1.35,1.35,0,0,0-.111.284l-.026.038a1.279,1.279,0,0,0-.179.387,1.269,1.269,0,0,0-.2.417,1.191,1.191,0,0,0-.205.417.907.907,0,0,0-.173.441,1.952,1.952,0,0,0-.066.676c0,.032,0,.064,0,.1a1.222,1.222,0,0,0-.2.618,1.181,1.181,0,0,0-.125.244l-.029.021-.052.113-.063.047-.084.109-.08.046-.092.107h0a1.437,1.437,0,0,0-.157.049,3.365,3.365,0,0,0-.327.127.834.834,0,0,1-.331.062A1.9,1.9,0,0,1,64.1,20.6l-.217-.115-.137.019-.068-.018a1.159,1.159,0,0,0-.32-.173l-.091-.053-.045-.055-.094-.085a.292.292,0,0,1-.038-.034l-.08-.115-.055-.039-.049-.131-.062-.042a1.243,1.243,0,0,0-.112-.236l-.007-.01,0-.053a1.789,1.789,0,0,0-.067-.681,1.8,1.8,0,0,0,.066-.679c0-.02,0-.04,0-.06l.016-.027a1.407,1.407,0,0,0,.141-.348,1.152,1.152,0,0,0,.241-.618L63.149,17a1.394,1.394,0,0,0,.126-.306l.019-.027a1.271,1.271,0,0,0,.186-.395,1.259,1.259,0,0,0,.2-.419l.067-.069.009-.038a1.189,1.189,0,0,0,.165-.507l.024-.042a1.367,1.367,0,0,0,.126-.307l.017-.023a1.268,1.268,0,0,0,.187-.394,1.221,1.221,0,0,0,.2-.4l.1-.1.043-.281a1.286,1.286,0,0,0-.185-1.13.975.975,0,0,0-.76-.334,3.125,3.125,0,0,0-.676.108l-.256.058-.078.087a1.468,1.468,0,0,0-.263.1l-.115.057a1.141,1.141,0,0,0-.612.243,1.4,1.4,0,0,0-.281.105l-.1.052a1.152,1.152,0,0,0-.622.245,1.389,1.389,0,0,0-.283.108l-.087.045a1.15,1.15,0,0,0-.622.245,1.372,1.372,0,0,0-.3.119l-.063.035a1.152,1.152,0,0,0-.607.24,1.341,1.341,0,0,0-.384.17l-.056.037-.046.011-.272-.017-.216.193a1.215,1.215,0,0,0-.42.206,1.279,1.279,0,0,0-.422.205,1.339,1.339,0,0,0-.364.159l-.076.049a1.457,1.457,0,0,0-.235.085l-.145.069a1.164,1.164,0,0,0-.457.158l-.048.012-.065.065a1.232,1.232,0,0,0-.391.2,1.249,1.249,0,0,0-.41.2,1.235,1.235,0,0,0-.412.205,1.237,1.237,0,0,0-.4.2,1.268,1.268,0,0,0-.4.2,1.256,1.256,0,0,0-.4.2,1.257,1.257,0,0,0-.4.2,1.253,1.253,0,0,0-.395.2,1.224,1.224,0,0,0-.4.2,1.242,1.242,0,0,0-.386.2,1.192,1.192,0,0,0-.433.235L51,17.765a1.86,1.86,0,0,1-.324.192l-.28.106-.039.068a1.153,1.153,0,0,0-.261.139l-.038.027a1.241,1.241,0,0,0-.358.188,1.151,1.151,0,0,0-.446.265l-.061.05-.159.058-.045.065a1.145,1.145,0,0,0-.368.224,2.652,2.652,0,0,1-.431.266l-.2.106-.007.01a1.109,1.109,0,0,0-.354.237l-.06.053-.148.061-.031.045a1.121,1.121,0,0,0-.37.247l-.052.047-.09.037-.126.137a1.3,1.3,0,0,1-.207.134c-.073.042-.145.084-.215.13l-.135.088-.037.053-.167.052-.055.1a1.086,1.086,0,0,0-.323.23l-.062.056c-.005.005-.007.007-.005.007l.009,0-.167.094-.035.054-.174.045-.065.129a1.073,1.073,0,0,0-.292.214c-.032.027-.128.113-.128.113l-.1.074-.053.073-.182.086-.039.077-.08.021-.153.227c-.028.019-.058.034-.087.051a2.227,2.227,0,0,0-.346.234l-.042.035-.083.093-.139.083-.068.1-.166.081-.054.107-.171.067-.1.253-.034-.033c-1.008.963-1.967,1.923-2.85,2.854l.035.037-.246.11-.073.171-.1.056-.087.155-.094.069L39.3,27.1l-.035.034-.07.075a2.022,2.022,0,0,0-.283.395c-.016.027-.031.055-.048.08l-.2.141-.026.087-.077.043-.089.169-.058.047-.086.1a2.83,2.83,0,0,0-.194.3,1.493,1.493,0,0,1-.086.136l-.183.146-.031.1-.029.023-.094.118c-.061.086-.115.176-.169.268a1.359,1.359,0,0,1-.115.176l-.128.123-.04.087-.05.055a1.091,1.091,0,0,0-.239.346l-.032.018-.114.235a1.4,1.4,0,0,1-.223.364l-.1.1-.063.122a2.346,2.346,0,0,1-.279.447,1.089,1.089,0,0,0-.217.379l-.07.11a1.207,1.207,0,0,0-.112.229l-.128.079-.04.2a1.152,1.152,0,0,0-.276.47,1.224,1.224,0,0,0-.2.387,1.244,1.244,0,0,0-.2.387,1.255,1.255,0,0,0-.2.4,1.265,1.265,0,0,0-.2.411,1.274,1.274,0,0,0-.206.422l-.032.052a2.717,2.717,0,0,0-.259.622,1.241,1.241,0,0,1-.1.268l-.046.058-.035.065a1.387,1.387,0,0,0-.123.317,1.156,1.156,0,0,0-.243.64l-.011.018a1.342,1.342,0,0,0-.152.376.911.911,0,0,0-.181.516c-.006.022-.018.074-.02.079a1.189,1.189,0,0,0-.242.675.933.933,0,0,0-.13.4,1.568,1.568,0,0,0-.063.37,1.332,1.332,0,0,0-.211.818,1.518,1.518,0,0,0-.2.948l0,.038a1.546,1.546,0,0,0-.2.962c0,.015,0,.031,0,.046l-.08.1-.115,1.12.658.2a4.078,4.078,0,0,0,1.194.167,7.635,7.635,0,0,0,1.091-.092,1.667,1.667,0,0,0,.3.028,1.786,1.786,0,0,0,.519-.079l.06-.018.064.02a1.771,1.771,0,0,0,.517.079,1.677,1.677,0,0,0,.246-.018,3.32,3.32,0,0,0,.723.071c.145,0,.291-.006.436-.013.12-.006.239-.012.358-.012a1.518,1.518,0,0,1,.409.044.94.94,0,0,0,.39.1,1.773,1.773,0,0,0,.518.071c.081,0,.163,0,.246-.009.05,0,.1-.006.148-.006h.011a.9.9,0,0,0,.464.153,1.748,1.748,0,0,0,.453.05h.076a1.306,1.306,0,0,0,.742.207h.081a.89.89,0,0,0,.446.141,1.737,1.737,0,0,0,.3.044l.028.027.188.059c.143.045.289.082.434.12a3.6,3.6,0,0,1,.55.169,1.173,1.173,0,0,0,.625.234,1.149,1.149,0,0,0,.546.195l.106.053a1.332,1.332,0,0,0,.226.089l.115.07a1.29,1.29,0,0,0,.3.133l.077.05a1.241,1.241,0,0,0,.292.139l.125.077a1.183,1.183,0,0,0,.218.105l.061.1.186.051a1.118,1.118,0,0,0,.373.248l.037.056.156.061.044.05.063.052a2.906,2.906,0,0,0,.321.213,1.453,1.453,0,0,1,.144.092l.12.139.078.033.052.071.129.093a.411.411,0,0,0,.031.033l.115.108.028.02a6.013,6.013,0,0,1,1.242,1.237c.063.078.108.128.155.177.017.018.035.035.05.054l.049.06.09.076.084.144.09.057.031.078.172.138c.012.018.033.061.057.1a2.288,2.288,0,0,0,.256.369l1.341-.981-1.293.991c0-.008-.007-.015-.01-.024l.009.024-.022.017.048.048.058.146.05.035a1.123,1.123,0,0,0,.246.366l.033.037.056.152.063.044a1.175,1.175,0,0,0,.164.3,1.163,1.163,0,0,0,.273.467,1.6,1.6,0,0,1,.108.255c.042.115.085.23.137.34l.074.158.017.015a1.346,1.346,0,0,0,.124.3l.024.042a1.212,1.212,0,0,0,.2.59,1.235,1.235,0,0,0,.192.6v.015a1.469,1.469,0,0,0,.207.957c0,.045,0,.123-.005.181a2.124,2.124,0,0,0,.083.823l.008.4.093.155a.9.9,0,0,0-.138.489,2.258,2.258,0,0,0-.046.674c0,.056.006.128,0,.171a1.242,1.242,0,0,0-.2.626,1.346,1.346,0,0,0-.16.369l-.033.043a1.135,1.135,0,0,0-.2.549l-.041.078a1.291,1.291,0,0,0-.075.169l-.063.035-.11.284a1.031,1.031,0,0,1-.212.339l-.058.063-.045.074c-.035.057-.068.115-.1.174a1.27,1.27,0,0,1-.147.231l-.126.115-.033.074-.068.05-.091.122-.034.035c-.034.035-.068.071-.1.108l-.035.043a3.7,3.7,0,0,1-.985.983l-.124.078-.077.1-.085.038-.12.136a1.359,1.359,0,0,1-.171.109c-.088.051-.175.1-.258.161l-.1.073-.023.028-.179.045-.067.119a1.122,1.122,0,0,0-.246.134l-.039.028a1.222,1.222,0,0,0-.362.188,1.246,1.246,0,0,0-.4.2,1.287,1.287,0,0,0-.409.2,1.373,1.373,0,0,0-.341.147l-.01.007a1.208,1.208,0,0,0-.575.2,1.215,1.215,0,0,0-.6.2,1.228,1.228,0,0,0-.612.2h-.076a1.572,1.572,0,0,0-.426.053l-.112-.02-.33.169-.075,0c-.062,0-.125-.006-.187-.006a1.486,1.486,0,0,0-.632.128,7.473,7.473,0,0,1-1.259.1,10.821,10.821,0,0,1-1.423-.1L40,64.886l-.1.027a1.619,1.619,0,0,0-.408-.047c-.059,0-.12,0-.18.005l-.068,0a1.27,1.27,0,0,0-.732-.207h-.064a1.375,1.375,0,0,0-.41-.163l-.252-.178-.2.012-.075-.02-.028-.028-.146-.062c-.09-.039-.181-.075-.271-.112a3.29,3.29,0,0,1-.708-.348,1.152,1.152,0,0,0-.367-.222l-.02-.027-.131-.06c-.028-.025-.054-.046-.079-.066a1.093,1.093,0,0,0-.345-.235l-.033-.049-.151-.061c-.028-.028-.048-.046-.067-.065a2.236,2.236,0,0,0-.383-.271.855.855,0,0,1-.116-.073l-.131-.161-.064-.023-.048-.076-.166-.1-.069-.09-.077-.064a.832.832,0,0,1-.092-.092l-.218-.213q-.1-.1-.2-.2l-.188-.192-1.161,1.2L33.383,61.4a1.339,1.339,0,0,1-.121-.123l-.058-.073-.073-.059a.344.344,0,0,1-.035-.03L33,60.975l-.09-.053-.08-.148-.089-.049-.025-.073-.179-.135a1.109,1.109,0,0,1-.058-.1,2.164,2.164,0,0,0-.272-.384l-.07-.073-.037-.083-.125-.117a1.307,1.307,0,0,1-.128-.2c-.048-.082-.1-.163-.149-.241l-.078-.115-.04-.03-.047-.169-.105-.06a1.117,1.117,0,0,0-.192-.316A1.348,1.348,0,0,1,31,58.254l-.11-.26-.053-.03a1.161,1.161,0,0,0-.142-.265l-.023-.032a1.232,1.232,0,0,0-.194-.381,82.449,82.449,0,0,1-.4-.8,1.309,1.309,0,0,0-.164-.364l-.037-.055c0-.008,0-.015-.005-.023a.9.9,0,0,0-.186-.527,1.323,1.323,0,0,0-.16-.374,1.219,1.219,0,0,0-.2-.6,1.207,1.207,0,0,0-.206-.615,1.625,1.625,0,0,0-.051-.33.917.917,0,0,0-.135-.415,1.359,1.359,0,0,0-.205-.823c0-.015,0-.031,0-.046a1.542,1.542,0,0,0-.2-.966,1.726,1.726,0,0,1,0-.285,2.365,2.365,0,0,0-.087-.918l-.036-.654-.053-.03a1.082,1.082,0,0,0-.252-.743,1.156,1.156,0,0,0-.893-.386l-.452-.012-.1.153a1.122,1.122,0,0,0-.561.236,1.319,1.319,0,0,0-.367.163l-.07.045a1.391,1.391,0,0,0-.264.1l-.088.046a1.15,1.15,0,0,0-.577.232,1.225,1.225,0,0,0-.4.2,1.214,1.214,0,0,0-.4.2,1.2,1.2,0,0,0-.433.233l-.123.08a1.783,1.783,0,0,1-.287.168l-.276.105-.038.066a1.175,1.175,0,0,0-.266.142l-.035.025a1.2,1.2,0,0,0-.418.236,3.176,3.176,0,0,1-.444.273l-.2.1-.01.015a1.106,1.106,0,0,0-.388.263l-.005,0-.185.064-.048.077a1.1,1.1,0,0,0-.384.268l-.171.062-.043.07a1.087,1.087,0,0,0-.368.256l-.032.032-.088.036-.125.138a1.306,1.306,0,0,1-.184.12c-.086.05-.171.1-.253.158l-.11.076-.051.068-.1.037-.14.172c-.013.01-.086.053-.139.084a3.036,3.036,0,0,0-.279.177l-.1.069-.058.076-.187.088-.043.086-.079.023-.144.212c-.024.016-.05.03-.075.045a2.005,2.005,0,0,0-.4.288l-.066.063c-.016.015-.031.031-.048.045l-.118.081-.06.088-.158.086-.054.1-.175.072-.093.216-.025-.025c-.185.162-.36.336-.535.51a5.44,5.44,0,0,1-.758.672l-.075.051-.063.066c-.052.054-.1.108-.16.159L14.8,56.4l-.024.026c-.048.052-.1.1-.151.151l-.026.025-.024.026c-.051.055-.1.108-.159.16l-.273.277-.044.065a5.24,5.24,0,0,1-.626.71c-.187.189-.38.385-.564.607l.024.023-.18.1-.085.159-.093.067-.088.127-.1.1a2.06,2.06,0,0,0-.282.394c-.014.024-.028.05-.043.073l-.232.152-.022.088-.071.036-.092.192-.072.063-.05.064a2.913,2.913,0,0,0-.207.314,1.454,1.454,0,0,1-.088.138l-.164.136-.033.091L11,60.8l-.095.12c-.06.085-.115.175-.168.266a1.3,1.3,0,0,1-.132.2l-.1.1-.037.075c-.027.03-.05.056-.071.081a1.1,1.1,0,0,0-.244.365l-.036.025-.063.145c-.022.025-.041.047-.059.069a1.083,1.083,0,0,0-.234.346L9.74,62.6l-.108.207a3.16,3.16,0,0,1-.273.446,1.164,1.164,0,0,0-.231.4l-.045.066a1.165,1.165,0,0,0-.121.231l-.08.043-.109.308a1.583,1.583,0,0,1-.222.361,1.2,1.2,0,0,0-.236.436,1.23,1.23,0,0,0-.2.39v0a1.257,1.257,0,0,0-.2.4,1.26,1.26,0,0,0-.2.4l-.055.1a3.072,3.072,0,0,0-.241.6,1.368,1.368,0,0,1-.12.307l-.024.032-.021.035a1.342,1.342,0,0,0-.14.332,1.158,1.158,0,0,0-.245.631l-.036.066a1.444,1.444,0,0,0-.123.321,1.16,1.16,0,0,0-.243.647,1.2,1.2,0,0,0-.2.59,1.2,1.2,0,0,0-.2.605,1.212,1.212,0,0,0-.2.613,1.237,1.237,0,0,0-.2.633.925.925,0,0,0-.133.409,1.6,1.6,0,0,0-.061.363,1.307,1.307,0,0,0-.211.8,1.342,1.342,0,0,0-.2.8,1.373,1.373,0,0,0-.2.817,1.535,1.535,0,0,0-.2.959l0,.035a.894.894,0,0,0-.149.472,1.945,1.945,0,0,0-.05.5c0,.018,0,.035,0,.053a.96.96,0,0,0-.133.412,1.9,1.9,0,0,0-.07.691c0,.03,0,.06,0,.09a.951.951,0,0,0-.141.453,2.147,2.147,0,0,0-.064.768c0,.058.007.134.005.178a.951.951,0,0,0-.141.478,2.68,2.68,0,0,0-.064.939,1.562,1.562,0,0,1,0,.374.914.914,0,0,0-.146.515,3,3,0,0,0-.053.9,1.266,1.266,0,0,1-.022.461l-.065.141-.023.359a2.426,2.426,0,0,0-.088.938,1.788,1.788,0,0,1,0,.307.949.949,0,0,0-.137.5,3.554,3.554,0,0,0-.063,1.094,1.919,1.919,0,0,1-.027.634.917.917,0,0,0-.108.6,11.288,11.288,0,0,0,0,2.781.931.931,0,0,0,.11.581,1.188,1.188,0,0,0-.167.525l-.062.129a1.928,1.928,0,0,1-.357.438c-.09.093-.188.194-.285.307a4.2,4.2,0,0,1-.534.04M34.741,46.835c-.552.042-1.2.091-1.85.122a1.329,1.329,0,0,0-1.352,1.463,16.188,16.188,0,0,0,.243,2.722,14.963,14.963,0,0,0,4.567,8.716,7.11,7.11,0,0,0,4.107,1.949,10,10,0,0,0,1.091.06,10.106,10.106,0,0,0,4.6-1.131,6.1,6.1,0,0,0,2.424-2.077,4.178,4.178,0,0,0,.715-3.269,9.568,9.568,0,0,0-6.423-7.336,21.842,21.842,0,0,0-7.475-1.263h-.037ZM4.937,74.894a.531.531,0,0,1,.047-.058l1.365.915Zm1.071-3.886.031-.03,1.293,1Zm.175-.582a.587.587,0,0,1,.082-.078l1.228,1.086Zm.2-.6a.57.57,0,0,1,.1-.1l1.186,1.136Zm.227-.623a.549.549,0,0,1,.065-.058L7.909,70.21Zm.619-1.62.026-.023,1.235,1.088Zm9.23-12.626a.535.535,0,0,1,.287-.192l.849,1.342Zm35.809-1.493a.543.543,0,0,1-.078-.073l1.3-1.017ZM32.54,40.063a.5.5,0,0,1,.057-.069l1.346.94Zm.291-.822v0l1.326.868Zm2.584-6.465q.019-.019.041-.038l1.266,1.038Zm7.419-9.214a.536.536,0,0,1,.306-.22L44,24.678ZM66,19.58a.583.583,0,0,1,.043-.042l1.275,1.036ZM67.577,15.2a.614.614,0,0,1,.078-.076L68.9,16.2Zm2.663-4.849.007-.009,1.25,1.069Z" transform="translate(0 -0.001)" fill="#fff"/>
    </g>
  </g>
</svg>
