<svg xmlns="http://www.w3.org/2000/svg" width="143" height="23.756" viewBox="0 0 143 23.756">
  <g id="Group_905267" data-name="Group 905267" transform="translate(-336 -4667.107)">
    <text id="_18_March_2023" data-name="18 March 2023" transform="translate(365 4685)" fill="#292d32" font-size="16" font-family="Inter"><tspan x="0" y="0">18 March 2023</tspan></text>
    <g id="calendar_15_" data-name="calendar (15)" transform="translate(333 4665.857)">
      <path id="Path_31179" data-name="Path 31179" d="M18.736,3.895V2.109a.859.859,0,1,0-1.717,0V3.826H9.578V2.109a.859.859,0,1,0-1.717,0V3.895A4.863,4.863,0,0,0,3.04,8.76a.575.575,0,0,0,.572.607H22.984a.568.568,0,0,0,.572-.607,4.863,4.863,0,0,0-4.82-4.866Z" transform="translate(0.006 0)" fill="#a4a4b8"/>
      <path id="Path_31180" data-name="Path 31180" d="M22.463,9.84H4.145A1.148,1.148,0,0,0,3,10.985v7.052c0,3.435,1.717,5.724,5.724,5.724h9.159c4.007,0,5.724-2.29,5.724-5.724V10.985A1.148,1.148,0,0,0,22.463,9.84ZM10.11,19.423a1.8,1.8,0,0,1-.172.137.867.867,0,0,1-.206.1.728.728,0,0,1-.206.069,1.552,1.552,0,0,1-.229.023,1.14,1.14,0,0,1-.435-.092,1.182,1.182,0,0,1-.378-.24,1.161,1.161,0,0,1,0-1.626,1.182,1.182,0,0,1,.378-.24,1.1,1.1,0,0,1,.664-.069.728.728,0,0,1,.206.069.867.867,0,0,1,.206.1l.172.137a1.161,1.161,0,0,1,0,1.626Zm0-4.007A1.15,1.15,0,0,1,8.484,13.79a1.143,1.143,0,0,1,1.248-.24,1.069,1.069,0,0,1,.378.24,1.161,1.161,0,0,1,0,1.626Zm4.007,4.007a1.161,1.161,0,1,1,.332-.813A1.2,1.2,0,0,1,14.117,19.423Zm0-4.007-.172.137a.867.867,0,0,1-.206.1.728.728,0,0,1-.206.069,1.551,1.551,0,0,1-.229.023,1.15,1.15,0,0,1-.813-1.958,1.069,1.069,0,0,1,.378-.24,1.143,1.143,0,0,1,1.248.24,1.161,1.161,0,0,1,0,1.626Zm4.007,4.007a1.161,1.161,0,1,1,.332-.813A1.2,1.2,0,0,1,18.124,19.423Zm0-4.007-.172.137a.867.867,0,0,1-.206.1.728.728,0,0,1-.206.069,1.72,1.72,0,0,1-.229.023A1.15,1.15,0,0,1,16.5,13.79a1.182,1.182,0,0,1,.378-.24,1.1,1.1,0,0,1,.664-.069.728.728,0,0,1,.206.069.867.867,0,0,1,.206.1l.172.137a1.161,1.161,0,0,1,0,1.626Z" transform="translate(0 1.244)" fill="#a4a4b8"/>
    </g>
  </g>
</svg>
