<svg xmlns="http://www.w3.org/2000/svg" width="30.829" height="30.829" viewBox="0 0 30.829 30.829">
  <g id="heart" transform="translate(-236 -188)">
    <path id="Vector" d="M14.612,24.367a3,3,0,0,1-1.706,0C8.916,23,0,17.322,0,7.691A7.669,7.669,0,0,1,7.65,0c2.5,0,4.719,2.211,6.109,4.082C15.149,2.211,17.378,0,19.868,0a7.669,7.669,0,0,1,7.65,7.691C27.518,17.322,18.6,23,14.612,24.367Z" transform="translate(237.656 191.169)" fill="none" stroke="#292d32" stroke-linecap="round" stroke-linejoin="round" stroke-width="2"/>
    <path id="Vector-2" data-name="Vector" d="M0,0H30.829V30.829H0Z" transform="translate(236 188)" fill="none" opacity="0"/>
  </g>
</svg>
