<svg id="instagram" xmlns="http://www.w3.org/2000/svg" width="17.271" height="17.271" viewBox="0 0 17.271 17.271">
  <path id="Path_31175" data-name="Path 31175" d="M10.277,5.838a4.431,4.431,0,1,0,4.431,4.431A4.431,4.431,0,0,0,10.277,5.838Zm0,7.308a2.876,2.876,0,1,1,2.876-2.876A2.875,2.875,0,0,1,10.277,13.146Z" transform="translate(-1.639 -1.637)" fill="#fff"/>
  <path id="Path_31176" data-name="Path 31176" d="M12.2.055c-1.589-.074-5.525-.071-7.115,0a5.161,5.161,0,0,0-3.624,1.4C-.2,3.113.009,5.351.009,8.633c0,3.359-.187,5.545,1.449,7.181,1.667,1.667,3.938,1.449,7.181,1.449,3.328,0,4.476,0,5.653-.453,1.6-.621,2.807-2.051,2.925-4.619.075-1.59.071-5.525,0-7.115C17.074,2.043,15.447.2,12.2.055Zm2.515,14.66c-1.089,1.089-2.6.992-6.094.992-3.6,0-5.041.053-6.094-1C1.311,13.5,1.531,11.56,1.531,8.621c0-3.976-.408-6.839,3.582-7.044.917-.032,1.187-.043,3.495-.043l.032.022c3.835,0,6.844-.4,7.024,3.588.041.91.05,1.184.05,3.488,0,3.556.067,5.008-1,6.083Z" transform="translate(0 -0.001)" fill="#fff"/>
  <circle id="Ellipse_1102" data-name="Ellipse 1102" cx="1.036" cy="1.036" r="1.036" transform="translate(12.21 2.99)" fill="#fff"/>
</svg>
