<svg xmlns="http://www.w3.org/2000/svg" width="15.538" height="19.125" viewBox="0 0 15.538 19.125">
  <g id="pinterest" transform="translate(0)">
    <g id="Group_905263" data-name="Group 905263">
      <path id="Path_31177" data-name="Path 31177" d="M56.033,0C50.792,0,48,3.359,48,7.022c0,1.7.949,3.817,2.468,4.489.231.1.356.06.408-.154.045-.163.245-.946.342-1.315a.338.338,0,0,0-.081-.332,4.355,4.355,0,0,1-.9-2.643,5.152,5.152,0,0,1,5.487-5.035c2.988,0,5.079,1.941,5.079,4.718,0,3.138-1.66,5.309-3.818,5.309a1.709,1.709,0,0,1-1.8-2.1A22.726,22.726,0,0,0,56.191,6.1a1.483,1.483,0,0,0-1.535-1.632c-1.216,0-2.2,1.2-2.2,2.82a4.02,4.02,0,0,0,.363,1.72s-1.2,4.858-1.426,5.765a12.9,12.9,0,0,0,.088,4.238.126.126,0,0,0,.23.059,15.06,15.06,0,0,0,1.98-3.728c.148-.546.757-2.761.757-2.761a3.3,3.3,0,0,0,2.788,1.329c3.663,0,6.309-3.219,6.309-7.214C63.529,2.865,60.252,0,56.033,0Z" transform="translate(-48.004)" fill="#fff"/>
    </g>
  </g>
</svg>
