<svg width="34" height="30" viewBox="0 0 34 30" fill="none" xmlns="http://www.w3.org/2000/svg">
<path d="M24.7002 4.5C24.7002 3.60998 24.9641 2.73996 25.4586 1.99994C25.953 1.25991 26.6558 0.683138 27.4781 0.342544C28.3004 0.00194979 29.2052 -0.0871652 30.0781 0.0864682C30.951 0.260102 31.7528 0.688685 32.3822 1.31802C33.0115 1.94736 33.4401 2.74918 33.6137 3.62209C33.7873 4.49501 33.6982 5.39981 33.3576 6.22208C33.017 7.04434 32.4403 7.74715 31.7002 8.24161C30.9602 8.73608 30.0902 9 29.2002 9C28.0067 9 26.8621 8.52589 26.0182 7.68198C25.1743 6.83807 24.7002 5.69347 24.7002 4.5ZM2.20019 6H20.2002C20.598 6 20.9795 5.84196 21.2608 5.56066C21.5422 5.27936 21.7002 4.89782 21.7002 4.5C21.7002 4.10218 21.5422 3.72065 21.2608 3.43934C20.9795 3.15804 20.598 3 20.2002 3H2.20019C1.80237 3 1.42084 3.15804 1.13953 3.43934C0.85823 3.72065 0.700195 4.10218 0.700195 4.5C0.700195 4.89782 0.85823 5.27936 1.13953 5.56066C1.42084 5.84196 1.80237 6 2.20019 6ZM11.2002 10.5C10.2718 10.5026 9.36689 10.7923 8.60959 11.3294C7.8523 11.8665 7.27966 12.6247 6.97019 13.5H2.20019C1.80237 13.5 1.42084 13.658 1.13953 13.9393C0.85823 14.2206 0.700195 14.6022 0.700195 15C0.700195 15.3978 0.85823 15.7794 1.13953 16.0607C1.42084 16.342 1.80237 16.5 2.20019 16.5H6.97019C7.24537 17.2783 7.72935 17.9659 8.36916 18.4876C9.00897 19.0093 9.77995 19.3449 10.5977 19.4577C11.4155 19.5706 12.2486 19.4563 13.0058 19.1274C13.7629 18.7985 14.415 18.2676 14.8907 17.5929C15.3664 16.9182 15.6473 16.1256 15.7027 15.3019C15.7581 14.4783 15.5858 13.6552 15.2048 12.9229C14.8237 12.1906 14.2486 11.5772 13.5423 11.1498C12.836 10.7225 12.0257 10.4977 11.2002 10.5ZM32.2002 13.5H20.2002C19.8024 13.5 19.4208 13.658 19.1395 13.9393C18.8582 14.2206 18.7002 14.6022 18.7002 15C18.7002 15.3978 18.8582 15.7794 19.1395 16.0607C19.4208 16.342 19.8024 16.5 20.2002 16.5H32.2002C32.598 16.5 32.9795 16.342 33.2608 16.0607C33.5421 15.7794 33.7002 15.3978 33.7002 15C33.7002 14.6022 33.5421 14.2206 33.2608 13.9393C32.9795 13.658 32.598 13.5 32.2002 13.5ZM14.2002 24H2.20019C1.80237 24 1.42084 24.158 1.13953 24.4393C0.85823 24.7206 0.700195 25.1022 0.700195 25.5C0.700195 25.8978 0.85823 26.2793 1.13953 26.5607C1.42084 26.842 1.80237 27 2.20019 27H14.2002C14.598 27 14.9795 26.842 15.2608 26.5607C15.5422 26.2793 15.7002 25.8978 15.7002 25.5C15.7002 25.1022 15.5422 24.7206 15.2608 24.4393C14.9795 24.158 14.598 24 14.2002 24ZM32.2002 24H27.4302C27.0763 22.9992 26.3801 22.1557 25.4645 21.6185C24.5488 21.0814 23.4728 20.8853 22.4266 21.0648C21.3803 21.2443 20.4312 21.7879 19.747 22.5995C19.0628 23.4111 18.6875 24.4385 18.6875 25.5C18.6875 26.5615 19.0628 27.5889 19.747 28.4005C20.4312 29.2121 21.3803 29.7557 22.4266 29.9352C23.4728 30.1147 24.5488 29.9186 25.4645 29.3814C26.3801 28.8443 27.0763 28.0008 27.4302 27H32.2002C32.598 27 32.9795 26.842 33.2608 26.5607C33.5421 26.2793 33.7002 25.8978 33.7002 25.5C33.7002 25.1022 33.5421 24.7206 33.2608 24.4393C32.9795 24.158 32.598 24 32.2002 24Z" fill="#FF7900"/>
</svg>
