<svg xmlns="http://www.w3.org/2000/svg" width="38.497" height="23.595" viewBox="0 0 38.497 23.595">
  <g id="_001-delivery-van" data-name="001-delivery-van" transform="translate(0)">
    <g id="Group_905330" data-name="Group 905330" transform="translate(0 0)">
      <path id="Path_32910" data-name="Path 32910" d="M94.761,256.572a3.382,3.382,0,1,0,3.383,3.382A3.382,3.382,0,0,0,94.761,256.572Zm0,4.853a1.47,1.47,0,1,1,1.471-1.47A1.47,1.47,0,0,1,94.761,261.424Z" transform="translate(-82.731 -239.742)" fill="#292d32"/>
      <path id="Path_32911" data-name="Path 32911" d="M283.23,256.572a3.382,3.382,0,1,0,3.383,3.382A3.382,3.382,0,0,0,283.23,256.572Zm0,4.853a1.47,1.47,0,1,1,1.471-1.47A1.47,1.47,0,0,1,283.23,261.424Z" transform="translate(-253.363 -239.742)" fill="#292d32"/>
      <path id="Path_32912" data-name="Path 32912" d="M37.089,133.571a.864.864,0,0,1-.862.862H24.337a.864.864,0,0,1-.862-.862v-.517a.864.864,0,0,1,.862-.862H36.228a.864.864,0,0,1,.862.862Z" transform="translate(-21.253 -127.133)" fill="#292d32"/>
      <path id="Path_32913" data-name="Path 32913" d="M77.794,90.219c-1.24-.322-1.95-.525-2.437-1.466l-1.628-3.3a3.486,3.486,0,0,0-2.811-1.71H68.69a.287.287,0,0,1-.3-.3V80.685a1.787,1.787,0,0,0-1.9-1.949H48.341c-1.847,0-2.725.877-2.725,1.949v1.733a.5.5,0,0,0,.5.515H56.273A1.725,1.725,0,0,1,58,84.657v.517A1.725,1.725,0,0,1,56.273,86.9H46.115a.457.457,0,0,0-.5.5v.6c0,.474.65.474.65.474H53.1a1.725,1.725,0,0,1,1.723,1.723V90.7A1.725,1.725,0,0,1,53.1,92.427h-6.73s-.757-.014-.757.589V97.2a1.955,1.955,0,0,0,1.949,1.949h1.077c.244,0,.28-.136.28-.2a4.408,4.408,0,0,1,8.816,0c0,.069-.02.2.167.2h8.688c.172,0,.165-.145.165-.2a4.408,4.408,0,0,1,8.815,0c0,.069,0,.2.106.2H77.87A1.932,1.932,0,0,0,79.8,97.227V93.568C79.8,90.486,78.824,90.486,77.794,90.219Zm-3.665-.171H68.647a.257.257,0,0,1-.257-.221V85.26s-.013-.175.278-.175h1.564a3.1,3.1,0,0,1,2.5,1.522l1.449,2.934a2.3,2.3,0,0,0,.2.317C74.431,89.926,74.344,90.047,74.129,90.047Z" transform="translate(-41.299 -78.736)" fill="#292d32"/>
      <path id="Path_32914" data-name="Path 32914" d="M12.666,192.007a.864.864,0,0,1-.862.862H.862A.864.864,0,0,1,0,192.007v-.517a.864.864,0,0,1,.862-.862H11.8a.864.864,0,0,1,.862.862Z" transform="translate(0 -180.039)" fill="#292d32"/>
    </g>
  </g>
</svg>
