<svg xmlns="http://www.w3.org/2000/svg" width="15.64" height="12.707" viewBox="0 0 15.64 12.707">
  <path id="Vector" d="M13.792,2.011A3.188,3.188,0,0,0,15.2.239a6.408,6.408,0,0,1-2.033.776A3.206,3.206,0,0,0,7.624,3.207a3.3,3.3,0,0,0,.074.731A9.076,9.076,0,0,1,1.089.585,3.207,3.207,0,0,0,2.074,4.87,3.166,3.166,0,0,1,.626,4.475V4.51a3.221,3.221,0,0,0,2.569,3.15,3.2,3.2,0,0,1-.841.106,2.835,2.835,0,0,1-.607-.055,3.237,3.237,0,0,0,3,2.234A6.443,6.443,0,0,1,.767,11.313,6.005,6.005,0,0,1,0,11.269a9.027,9.027,0,0,0,4.919,1.439,9.063,9.063,0,0,0,9.126-9.124c0-.142,0-.279-.012-.414A6.4,6.4,0,0,0,15.64,1.5,6.685,6.685,0,0,1,13.792,2.011Z" fill="#fff"/>
</svg>
